<svg width="0" height="0" class="hidden">
  <symbol xmlns="http://www.w3.org/2000/svg" viewBox="0 0 48 48" id="icons8-google">
    <path fill="#FFC107" d="M43.611,20.083H42V20H24v8h11.303c-1.649,4.657-6.08,8-11.303,8c-6.627,0-12-5.373-12-12c0-6.627,5.373-12,12-12c3.059,0,5.842,1.154,7.961,3.039l5.657-5.657C34.046,6.053,29.268,4,24,4C12.955,4,4,12.955,4,24c0,11.045,8.955,20,20,20c11.045,0,20-8.955,20-20C44,22.659,43.862,21.35,43.611,20.083z"></path>
    <path fill="#FF3D00" d="M6.306,14.691l6.571,4.819C14.655,15.108,18.961,12,24,12c3.059,0,5.842,1.154,7.961,3.039l5.657-5.657C34.046,6.053,29.268,4,24,4C16.318,4,9.656,8.337,6.306,14.691z"></path>
    <path fill="#4CAF50" d="M24,44c5.166,0,9.86-1.977,13.409-5.192l-6.19-5.238C29.211,35.091,26.715,36,24,36c-5.202,0-9.619-3.317-11.283-7.946l-6.522,5.025C9.505,39.556,16.227,44,24,44z"></path>
    <path fill="#1976D2" d="M43.611,20.083H42V20H24v8h11.303c-0.792,2.237-2.231,4.166-4.087,5.571c0.001-0.001,0.002-0.001,0.003-0.002l6.19,5.238C36.971,39.205,44,34,44,24C44,22.659,43.862,21.35,43.611,20.083z"></path>
  </symbol>
</svg>

<svg width="0" height="0" class="hidden">
  <symbol xmlns="http://www.w3.org/2000/svg" viewBox="0 0 48 48" id="icons8-outlook">
    <path fill="#1976d2" d="M28,13h14.533C43.343,13,44,13.657,44,14.467v19.066C44,34.343,43.343,35,42.533,35H28V13z"></path>
    <rect width="14" height="15.542" x="28" y="17.958" fill="#fff"></rect>
    <polygon fill="#1976d2" points="27,44 4,39.5 4,8.5 27,4"></polygon>
    <path fill="#fff" d="M15.25,16.5c-3.176,0-5.75,3.358-5.75,7.5s2.574,7.5,5.75,7.5S21,28.142,21,24	S18.426,16.5,15.25,16.5z M15,28.5c-1.657,0-3-2.015-3-4.5s1.343-4.5,3-4.5s3,2.015,3,4.5S16.657,28.5,15,28.5z"></path>
    <rect width="2.7" height="2.9" x="28.047" y="29.737" fill="#1976d2"></rect>
    <rect width="2.7" height="2.9" x="31.448" y="29.737" fill="#1976d2"></rect>
    <rect width="2.7" height="2.9" x="34.849" y="29.737" fill="#1976d2"></rect>
    <rect width="2.7" height="2.9" x="28.047" y="26.159" fill="#1976d2"></rect>
    <rect width="2.7" height="2.9" x="31.448" y="26.159" fill="#1976d2"></rect>
    <rect width="2.7" height="2.9" x="34.849" y="26.159" fill="#1976d2"></rect>
    <rect width="2.7" height="2.9" x="38.25" y="26.159" fill="#1976d2"></rect>
    <rect width="2.7" height="2.9" x="28.047" y="22.706" fill="#1976d2"></rect>
    <rect width="2.7" height="2.9" x="31.448" y="22.706" fill="#1976d2"></rect>
    <rect width="2.7" height="2.9" x="34.849" y="22.706" fill="#1976d2"></rect>
    <rect width="2.7" height="2.9" x="38.25" y="22.706" fill="#1976d2"></rect>
    <rect width="2.7" height="2.9" x="31.448" y="19.112" fill="#1976d2"></rect>
    <rect width="2.7" height="2.9" x="34.849" y="19.112" fill="#1976d2"></rect>
    <rect width="2.7" height="2.9" x="38.25" y="19.112" fill="#1976d2"></rect>
  </symbol>
</svg>